<?xml version="1.0" standalone="no"?>
<!DOCTYPE svg PUBLIC "-//W3C//DTD SVG 20010904//EN"
 "http://www.w3.org/TR/2001/REC-SVG-20010904/DTD/svg10.dtd">
<svg version="1.0" xmlns="http://www.w3.org/2000/svg"
 width="1024.000000pt" height="1024.000000pt" viewBox="0 0 1024.000000 1024.000000"
 preserveAspectRatio="xMidYMid meet">
<metadata>
Created by potrace 1.16, written by Peter Selinger 2001-2019
</metadata>
<g transform="translate(0.000000,1024.000000) scale(0.100000,-0.100000)"
fill="#000000" stroke="none">
<path d="M920 8451 c-83 -26 -150 -82 -191 -161 -20 -38 -24 -60 -24 -140 0
-84 3 -101 27 -146 15 -28 48 -70 73 -92 81 -71 86 -72 556 -72 l417 0 40
-107 c22 -60 103 -274 180 -478 77 -203 423 -1121 770 -2040 347 -918 635
-1682 641 -1696 9 -26 7 -29 -51 -65 -78 -48 -198 -161 -254 -241 -55 -75
-115 -205 -140 -298 -27 -98 -27 -371 0 -465 93 -336 361 -589 695 -656 112
-22 304 -15 411 16 307 87 546 334 626 648 23 89 25 110 21 252 -3 94 -11 176
-20 208 l-15 52 905 0 c858 0 905 -1 898 -17 -35 -93 -46 -329 -20 -450 91
-430 446 -723 875 -723 425 0 783 291 876 713 26 115 21 299 -10 419 -68 263
-237 471 -480 588 -194 93 -3 84 -1956 88 l-1726 2 -81 215 -81 215 1967 0
c2172 0 2024 -4 2113 63 23 18 55 50 70 72 21 30 137 396 458 1439 357 1161
430 1409 430 1457 0 116 -61 218 -161 274 l-54 30 -3041 3 -3041 2 -88 233
c-234 618 -274 719 -300 753 -32 42 -103 90 -155 104 -41 12 -1122 12 -1160 1z
m3659 -2153 c18 -244 34 -455 37 -471 l6 -27 -707 2 -706 3 -169 446 c-92 245
-171 455 -174 467 l-7 22 844 0 843 0 33 -442z m1728 405 c-3 -21 -20 -233
-38 -470 l-33 -433 -653 0 c-646 0 -653 0 -653 20 0 25 -57 772 -65 858 l-7
62 727 0 728 0 -6 -37z m1881 25 c-2 -7 -67 -219 -144 -470 l-139 -458 -677 0
c-373 0 -678 1 -678 3 0 1 16 202 35 447 19 245 35 455 35 468 l0 22 786 0
c625 0 785 -3 782 -12z m-3544 -1290 c3 -24 17 -196 31 -383 14 -187 27 -355
29 -372 l5 -33 -532 0 -533 0 -144 383 c-79 210 -150 397 -157 415 l-13 32
654 0 655 0 5 -42z m1566 30 c0 -7 -14 -182 -30 -388 -16 -206 -30 -387 -30
-402 l0 -28 -565 0 c-315 0 -565 4 -565 9 0 5 -13 185 -30 401 -16 216 -30
399 -30 406 0 12 102 14 625 14 493 0 625 -3 625 -12z m1590 0 c0 -7 -56 -193
-124 -413 l-124 -400 -547 -3 -547 -2 6 47 c3 27 17 208 32 403 14 195 27 361
30 368 5 18 1274 18 1274 0z m-3860 -2530 c184 -79 222 -324 71 -461 -57 -51
-105 -70 -181 -70 -150 -1 -274 125 -274 278 0 134 95 248 227 275 52 10 99 3
157 -22z m3513 -1 c89 -37 167 -154 167 -251 0 -98 -74 -212 -167 -257 -64
-31 -151 -31 -218 -1 -210 95 -228 382 -30 498 80 46 156 50 248 11z"/>
</g>
</svg>
