<?xml version="1.0" standalone="no"?>
<!DOCTYPE svg PUBLIC "-//W3C//DTD SVG 20010904//EN"
 "http://www.w3.org/TR/2001/REC-SVG-20010904/DTD/svg10.dtd">
<svg version="1.0" xmlns="http://www.w3.org/2000/svg"
 width="376.000000pt" height="376.000000pt" viewBox="0 0 376.000000 376.000000"
 preserveAspectRatio="xMidYMid meet">
<metadata>
Created by potrace 1.16, written by Peter Selinger 2001-2019
</metadata>
<g transform="translate(0.000000,376.000000) scale(0.100000,-0.100000)"
fill="#000000" stroke="none">
<path d="M1724 3570 c-511 -49 -969 -322 -1255 -748 -425 -633 -369 -1484 135
-2062 397 -454 1028 -664 1624 -540 658 137 1179 658 1312 1311 140 684 -141
1372 -718 1760 -314 210 -724 315 -1098 279z m287 -161 c277 -28 499 -107 729
-260 127 -84 325 -282 409 -409 236 -355 318 -762 235 -1170 -51 -250 -190
-526 -354 -702 l-59 -63 -1 36 c0 55 -27 188 -54 265 -101 298 -321 532 -617
658 l-66 28 71 71 c121 122 179 260 179 427 0 257 -144 473 -382 568 -217 88
-482 32 -651 -139 -116 -117 -173 -258 -173 -429 0 -167 58 -306 179 -427 l72
-71 -67 -28 c-166 -69 -324 -187 -435 -326 -121 -151 -216 -378 -232 -553 l-7
-76 -34 33 c-77 73 -179 221 -248 358 -212 422 -212 937 -2 1357 79 156 161
269 296 404 264 263 570 410 936 448 116 12 161 12 276 0z m-26 -684 c275 -72
417 -370 295 -621 -77 -158 -228 -254 -400 -254 -218 0 -406 162 -440 380 -47
306 247 572 545 495z m4 -1045 c382 -48 702 -330 795 -700 13 -52 26 -145 30
-205 l7 -110 -93 -62 c-520 -346 -1176 -346 -1696 0 l-93 62 7 110 c25 418
279 750 664 869 136 43 243 53 379 36z"/>
</g>
</svg>
