<?xml version="1.0" standalone="no"?>
<!DOCTYPE svg PUBLIC "-//W3C//DTD SVG 20010904//EN"
 "http://www.w3.org/TR/2001/REC-SVG-20010904/DTD/svg10.dtd">
<svg version="1.0" xmlns="http://www.w3.org/2000/svg"
 width="512.000000pt" height="512.000000pt" viewBox="0 0 512.000000 512.000000"
 preserveAspectRatio="xMidYMid meet">
<metadata>
Created by potrace 1.16, written by Peter Selinger 2001-2019
</metadata>
<g transform="translate(0.000000,512.000000) scale(0.100000,-0.100000)"
fill="#000000" stroke="none">
<path d="M431 5104 c-150 -40 -305 -165 -369 -297 -67 -139 -62 29 -60 -2273
l3 -2089 29 -70 c61 -147 151 -246 288 -315 42 -21 101 -43 130 -49 38 -8 656
-11 2138 -9 l2085 3 70 29 c142 59 242 149 310 277 70 133 65 -38 65 2249 0
1821 -2 2073 -15 2124 -53 203 -219 368 -422 421 -85 22 -4170 21 -4252 -1z
m4199 -330 c67 -31 106 -68 137 -132 l28 -57 0 -2025 0 -2025 -21 -45 c-31
-67 -68 -106 -132 -137 l-57 -28 -2025 0 -2025 0 -57 28 c-64 31 -101 70 -132
137 l-21 45 0 2020 c0 1633 2 2027 13 2057 32 89 112 159 203 177 24 5 944 8
2044 7 l2000 -1 45 -21z"/>
<path d="M2472 3820 c-18 -11 -41 -34 -52 -52 -19 -32 -20 -52 -20 -540 l0
-508 -507 0 c-489 0 -509 -1 -541 -20 -48 -30 -72 -75 -72 -140 0 -65 24 -110
72 -140 32 -19 52 -20 541 -20 l507 0 0 -507 c0 -489 1 -509 20 -541 30 -48
75 -72 140 -72 65 0 110 24 140 72 19 32 20 52 20 541 l0 507 508 0 c488 0
508 1 540 20 48 30 72 75 72 140 0 65 -24 110 -72 140 -32 19 -52 20 -540 20
l-508 0 0 508 c0 488 -1 508 -20 540 -30 48 -75 72 -140 72 -37 0 -66 -6 -88
-20z"/>
</g>
</svg>
